<mxfile host="Electron" modified="2024-04-04T08:27:47.502Z" agent="Mozilla/5.0 (Windows NT 10.0; Win64; x64) AppleWebKit/537.36 (KHTML, like Gecko) draw.io/23.1.5 Chrome/120.0.6099.109 Electron/28.1.0 Safari/537.36" etag="fSgRdlmf3puhC_H-5jDk" version="23.1.5" type="device">
  <diagram name="Page-1" id="q3CbM4fyBCczV83SilPQ">
    <mxGraphModel dx="1434" dy="844" grid="1" gridSize="10" guides="1" tooltips="1" connect="1" arrows="1" fold="1" page="1" pageScale="1" pageWidth="850" pageHeight="1100" math="0" shadow="0">
      <root>
        <mxCell id="0" />
        <mxCell id="1" parent="0" />
        <mxCell id="1Ns7jv_GwLkWFKXFiFpL-5" style="edgeStyle=orthogonalEdgeStyle;rounded=0;orthogonalLoop=1;jettySize=auto;html=1;exitX=0.5;exitY=1;exitDx=0;exitDy=0;entryX=0.5;entryY=0;entryDx=0;entryDy=0;" edge="1" parent="1" source="1Ns7jv_GwLkWFKXFiFpL-1" target="1Ns7jv_GwLkWFKXFiFpL-2">
          <mxGeometry relative="1" as="geometry" />
        </mxCell>
        <mxCell id="1Ns7jv_GwLkWFKXFiFpL-1" value="Get baseline" style="rounded=0;whiteSpace=wrap;html=1;" vertex="1" parent="1">
          <mxGeometry x="365" y="80" width="120" height="60" as="geometry" />
        </mxCell>
        <mxCell id="1Ns7jv_GwLkWFKXFiFpL-6" style="edgeStyle=orthogonalEdgeStyle;rounded=0;orthogonalLoop=1;jettySize=auto;html=1;exitX=0.5;exitY=1;exitDx=0;exitDy=0;entryX=0.5;entryY=0;entryDx=0;entryDy=0;" edge="1" parent="1" source="1Ns7jv_GwLkWFKXFiFpL-2" target="1Ns7jv_GwLkWFKXFiFpL-3">
          <mxGeometry relative="1" as="geometry" />
        </mxCell>
        <mxCell id="1Ns7jv_GwLkWFKXFiFpL-2" value="Get service name from serviceId and annotations" style="rounded=0;whiteSpace=wrap;html=1;" vertex="1" parent="1">
          <mxGeometry x="365" y="190" width="120" height="60" as="geometry" />
        </mxCell>
        <mxCell id="1Ns7jv_GwLkWFKXFiFpL-7" style="edgeStyle=orthogonalEdgeStyle;rounded=0;orthogonalLoop=1;jettySize=auto;html=1;exitX=0.5;exitY=1;exitDx=0;exitDy=0;entryX=0.5;entryY=0;entryDx=0;entryDy=0;" edge="1" parent="1" source="1Ns7jv_GwLkWFKXFiFpL-3" target="1Ns7jv_GwLkWFKXFiFpL-4">
          <mxGeometry relative="1" as="geometry" />
        </mxCell>
        <mxCell id="1Ns7jv_GwLkWFKXFiFpL-3" value="Get Package by service name" style="rounded=0;whiteSpace=wrap;html=1;" vertex="1" parent="1">
          <mxGeometry x="365" y="300" width="120" height="60" as="geometry" />
        </mxCell>
        <mxCell id="1Ns7jv_GwLkWFKXFiFpL-4" value="Get versions" style="rounded=0;whiteSpace=wrap;html=1;" vertex="1" parent="1">
          <mxGeometry x="365" y="410" width="120" height="60" as="geometry" />
        </mxCell>
      </root>
    </mxGraphModel>
  </diagram>
</mxfile>
